solid
 facet normal -1.000000e+00 -0.000000e+00 -0.000000e+00
   outer loop
     vertex -2.540000e+00  2.032500e+00  2.000000e+00
     vertex -2.540000e+00  2.032500e+00  0.000000e+00
     vertex -2.540000e+00 -2.032500e+00  2.000000e+00
   endloop
 endfacet
 facet normal -1.000000e+00  0.000000e+00  0.000000e+00
   outer loop
     vertex -2.540000e+00  2.032500e+00  0.000000e+00
     vertex -2.540000e+00 -2.032500e+00  0.000000e+00
     vertex -2.540000e+00 -2.032500e+00  2.000000e+00
   endloop
 endfacet
 facet normal  1.000000e+00 -0.000000e+00  0.000000e+00
   outer loop
     vertex -1.640000e+00 -2.032500e+00  2.000000e+00
     vertex -1.640000e+00  2.032500e+00  0.000000e+00
     vertex -1.640000e+00  2.032500e+00  2.000000e+00
   endloop
 endfacet
 facet normal  1.000000e+00 -0.000000e+00  0.000000e+00
   outer loop
     vertex -1.640000e+00 -2.032500e+00  2.000000e+00
     vertex -1.640000e+00 -2.032500e+00  0.000000e+00
     vertex -1.640000e+00  2.032500e+00  0.000000e+00
   endloop
 endfacet
 facet normal  0.000000e+00 -1.000000e+00  0.000000e+00
   outer loop
     vertex -2.540000e+00 -2.032500e+00  0.000000e+00
     vertex -1.640000e+00 -2.032500e+00  0.000000e+00
     vertex -1.640000e+00 -2.032500e+00  2.000000e+00
   endloop
 endfacet
 facet normal  0.000000e+00 -1.000000e+00  0.000000e+00
   outer loop
     vertex -2.540000e+00 -2.032500e+00  2.000000e+00
     vertex -2.540000e+00 -2.032500e+00  0.000000e+00
     vertex -1.640000e+00 -2.032500e+00  2.000000e+00
   endloop
 endfacet
 facet normal  0.000000e+00  1.000000e+00  0.000000e+00
   outer loop
     vertex -1.640000e+00  2.032500e+00  2.000000e+00
     vertex -1.640000e+00  2.032500e+00  0.000000e+00
     vertex -2.540000e+00  2.032500e+00  0.000000e+00
   endloop
 endfacet
 facet normal  0.000000e+00  1.000000e+00 -0.000000e+00
   outer loop
     vertex -1.640000e+00  2.032500e+00  2.000000e+00
     vertex -2.540000e+00  2.032500e+00  0.000000e+00
     vertex -2.540000e+00  2.032500e+00  2.000000e+00
   endloop
 endfacet
 facet normal  0.000000e+00  0.000000e+00 -1.000000e+00
   outer loop
     vertex -2.540000e+00 -2.032500e+00  0.000000e+00
     vertex -2.540000e+00  2.032500e+00  0.000000e+00
     vertex -1.640000e+00  2.032500e+00  0.000000e+00
   endloop
 endfacet
 facet normal  0.000000e+00  0.000000e+00 -1.000000e+00
   outer loop
     vertex -1.640000e+00 -2.032500e+00  0.000000e+00
     vertex -2.540000e+00 -2.032500e+00  0.000000e+00
     vertex -1.640000e+00  2.032500e+00  0.000000e+00
   endloop
 endfacet
 facet normal  0.000000e+00  0.000000e+00  1.000000e+00
   outer loop
     vertex -1.640000e+00  2.032500e+00  2.000000e+00
     vertex -2.540000e+00  2.032500e+00  2.000000e+00
     vertex -2.540000e+00 -2.032500e+00  2.000000e+00
   endloop
 endfacet
 facet normal -0.000000e+00  0.000000e+00  1.000000e+00
   outer loop
     vertex -1.640000e+00  2.032500e+00  2.000000e+00
     vertex -2.540000e+00 -2.032500e+00  2.000000e+00
     vertex -1.640000e+00 -2.032500e+00  2.000000e+00
   endloop
 endfacet
 facet normal -1.000000e+00 -0.000000e+00 -0.000000e+00
   outer loop
     vertex  1.640000e+00  2.032500e+00  2.000000e+00
     vertex  1.640000e+00  2.032500e+00  0.000000e+00
     vertex  1.640000e+00 -2.032500e+00  2.000000e+00
   endloop
 endfacet
 facet normal -1.000000e+00  0.000000e+00  0.000000e+00
   outer loop
     vertex  1.640000e+00  2.032500e+00  0.000000e+00
     vertex  1.640000e+00 -2.032500e+00  0.000000e+00
     vertex  1.640000e+00 -2.032500e+00  2.000000e+00
   endloop
 endfacet
 facet normal  1.000000e+00 -0.000000e+00  0.000000e+00
   outer loop
     vertex  2.540000e+00 -2.032500e+00  2.000000e+00
     vertex  2.540000e+00  2.032500e+00  0.000000e+00
     vertex  2.540000e+00  2.032500e+00  2.000000e+00
   endloop
 endfacet
 facet normal  1.000000e+00 -0.000000e+00  0.000000e+00
   outer loop
     vertex  2.540000e+00 -2.032500e+00  2.000000e+00
     vertex  2.540000e+00 -2.032500e+00  0.000000e+00
     vertex  2.540000e+00  2.032500e+00  0.000000e+00
   endloop
 endfacet
 facet normal  0.000000e+00 -1.000000e+00  0.000000e+00
   outer loop
     vertex  1.640000e+00 -2.032500e+00  0.000000e+00
     vertex  2.540000e+00 -2.032500e+00  0.000000e+00
     vertex  2.540000e+00 -2.032500e+00  2.000000e+00
   endloop
 endfacet
 facet normal  0.000000e+00 -1.000000e+00  0.000000e+00
   outer loop
     vertex  1.640000e+00 -2.032500e+00  2.000000e+00
     vertex  1.640000e+00 -2.032500e+00  0.000000e+00
     vertex  2.540000e+00 -2.032500e+00  2.000000e+00
   endloop
 endfacet
 facet normal  0.000000e+00  1.000000e+00  0.000000e+00
   outer loop
     vertex  2.540000e+00  2.032500e+00  2.000000e+00
     vertex  2.540000e+00  2.032500e+00  0.000000e+00
     vertex  1.640000e+00  2.032500e+00  0.000000e+00
   endloop
 endfacet
 facet normal  0.000000e+00  1.000000e+00 -0.000000e+00
   outer loop
     vertex  2.540000e+00  2.032500e+00  2.000000e+00
     vertex  1.640000e+00  2.032500e+00  0.000000e+00
     vertex  1.640000e+00  2.032500e+00  2.000000e+00
   endloop
 endfacet
 facet normal  0.000000e+00  0.000000e+00 -1.000000e+00
   outer loop
     vertex  2.540000e+00 -2.032500e+00  0.000000e+00
     vertex  1.640000e+00 -2.032500e+00  0.000000e+00
     vertex  1.640000e+00  2.032500e+00  0.000000e+00
   endloop
 endfacet
 facet normal  0.000000e+00  0.000000e+00 -1.000000e+00
   outer loop
     vertex  2.540000e+00 -2.032500e+00  0.000000e+00
     vertex  1.640000e+00  2.032500e+00  0.000000e+00
     vertex  2.540000e+00  2.032500e+00  0.000000e+00
   endloop
 endfacet
 facet normal -0.000000e+00  0.000000e+00  1.000000e+00
   outer loop
     vertex  1.640000e+00  2.032500e+00  2.000000e+00
     vertex  1.640000e+00 -2.032500e+00  2.000000e+00
     vertex  2.540000e+00 -2.032500e+00  2.000000e+00
   endloop
 endfacet
 facet normal  0.000000e+00  0.000000e+00  1.000000e+00
   outer loop
     vertex  2.540000e+00  2.032500e+00  2.000000e+00
     vertex  1.640000e+00  2.032500e+00  2.000000e+00
     vertex  2.540000e+00 -2.032500e+00  2.000000e+00
   endloop
 endfacet
 facet normal -1.000000e+00 -0.000000e+00 -0.000000e+00
   outer loop
     vertex -1.640000e+00  1.991850e+00  1.980000e+00
     vertex -1.640000e+00  1.991850e+00  2.000000e-02
     vertex -1.640000e+00 -1.991850e+00  1.980000e+00
   endloop
 endfacet
 facet normal -1.000000e+00  0.000000e+00  0.000000e+00
   outer loop
     vertex -1.640000e+00  1.991850e+00  2.000000e-02
     vertex -1.640000e+00 -1.991850e+00  2.000000e-02
     vertex -1.640000e+00 -1.991850e+00  1.980000e+00
   endloop
 endfacet
 facet normal  1.000000e+00 -0.000000e+00  0.000000e+00
   outer loop
     vertex  1.640000e+00 -1.991850e+00  1.980000e+00
     vertex  1.640000e+00  1.991850e+00  2.000000e-02
     vertex  1.640000e+00  1.991850e+00  1.980000e+00
   endloop
 endfacet
 facet normal  1.000000e+00 -0.000000e+00  0.000000e+00
   outer loop
     vertex  1.640000e+00 -1.991850e+00  1.980000e+00
     vertex  1.640000e+00 -1.991850e+00  2.000000e-02
     vertex  1.640000e+00  1.991850e+00  2.000000e-02
   endloop
 endfacet
 facet normal  0.000000e+00 -1.000000e+00  0.000000e+00
   outer loop
     vertex -1.640000e+00 -1.991850e+00  1.980000e+00
     vertex -1.640000e+00 -1.991850e+00  2.000000e-02
     vertex  1.640000e+00 -1.991850e+00  2.000000e-02
   endloop
 endfacet
 facet normal  0.000000e+00 -1.000000e+00  0.000000e+00
   outer loop
     vertex -1.640000e+00 -1.991850e+00  1.980000e+00
     vertex  1.640000e+00 -1.991850e+00  2.000000e-02
     vertex  1.640000e+00 -1.991850e+00  1.980000e+00
   endloop
 endfacet
 facet normal  0.000000e+00  1.000000e+00 -0.000000e+00
   outer loop
     vertex  1.640000e+00  1.991850e+00  2.000000e-02
     vertex -1.640000e+00  1.991850e+00  2.000000e-02
     vertex -1.640000e+00  1.991850e+00  1.980000e+00
   endloop
 endfacet
 facet normal  0.000000e+00  1.000000e+00  0.000000e+00
   outer loop
     vertex  1.640000e+00  1.991850e+00  1.980000e+00
     vertex  1.640000e+00  1.991850e+00  2.000000e-02
     vertex -1.640000e+00  1.991850e+00  1.980000e+00
   endloop
 endfacet
 facet normal  0.000000e+00  0.000000e+00 -1.000000e+00
   outer loop
     vertex -1.640000e+00 -1.991850e+00  2.000000e-02
     vertex -1.640000e+00  1.991850e+00  2.000000e-02
     vertex  1.640000e+00  1.991850e+00  2.000000e-02
   endloop
 endfacet
 facet normal  0.000000e+00  0.000000e+00 -1.000000e+00
   outer loop
     vertex  1.640000e+00 -1.991850e+00  2.000000e-02
     vertex -1.640000e+00 -1.991850e+00  2.000000e-02
     vertex  1.640000e+00  1.991850e+00  2.000000e-02
   endloop
 endfacet
 facet normal  0.000000e+00  0.000000e+00  1.000000e+00
   outer loop
     vertex  1.640000e+00  1.991850e+00  1.980000e+00
     vertex -1.640000e+00  1.991850e+00  1.980000e+00
     vertex -1.640000e+00 -1.991850e+00  1.980000e+00
   endloop
 endfacet
 facet normal -0.000000e+00  0.000000e+00  1.000000e+00
   outer loop
     vertex  1.640000e+00  1.991850e+00  1.980000e+00
     vertex -1.640000e+00 -1.991850e+00  1.980000e+00
     vertex  1.640000e+00 -1.991850e+00  1.980000e+00
   endloop
 endfacet
endsolid
