solid
 facet normal -9.989535e-01  0.000000e+00  4.573697e-02
   outer loop
     vertex -3.870000e+00 -2.952500e+00  1.244000e+00
     vertex -3.836500e+00 -2.919000e+00  1.975675e+00
     vertex -3.836500e+00  2.919000e+00  1.975675e+00
   endloop
 endfacet
 facet normal -9.989535e-01  0.000000e+00  4.573697e-02
   outer loop
     vertex -3.870000e+00  2.952500e+00  1.244000e+00
     vertex -3.870000e+00 -2.952500e+00  1.244000e+00
     vertex -3.836500e+00  2.919000e+00  1.975675e+00
   endloop
 endfacet
 facet normal  1.689100e-16 -9.989535e-01  4.573697e-02
   outer loop
     vertex -3.162000e+00 -2.889500e+00  2.620000e+00
     vertex -3.836500e+00 -2.919000e+00  1.975675e+00
     vertex -3.870000e+00 -2.952500e+00  1.244000e+00
   endloop
 endfacet
 facet normal  0.000000e+00 -9.989535e-01  4.573697e-02
   outer loop
     vertex  3.870000e+00 -2.952500e+00  1.244000e+00
     vertex -3.162000e+00 -2.889500e+00  2.620000e+00
     vertex -3.870000e+00 -2.952500e+00  1.244000e+00
   endloop
 endfacet
 facet normal  2.914521e-18 -9.989535e-01  4.573697e-02
   outer loop
     vertex  3.807000e+00 -2.889500e+00  2.620000e+00
     vertex -3.162000e+00 -2.889500e+00  2.620000e+00
     vertex  3.870000e+00 -2.952500e+00  1.244000e+00
   endloop
 endfacet
 facet normal -6.907471e-01  0.000000e+00  7.230965e-01
   outer loop
     vertex -3.836500e+00 -2.919000e+00  1.975675e+00
     vertex -3.162000e+00 -2.889500e+00  2.620000e+00
     vertex -3.836500e+00  2.919000e+00  1.975675e+00
   endloop
 endfacet
 facet normal -6.907471e-01  0.000000e+00  7.230965e-01
   outer loop
     vertex -3.836500e+00  2.919000e+00  1.975675e+00
     vertex -3.162000e+00 -2.889500e+00  2.620000e+00
     vertex -3.162000e+00  2.889500e+00  2.620000e+00
   endloop
 endfacet
 facet normal -1.000000e+00  0.000000e+00  0.000000e+00
   outer loop
     vertex -3.870000e+00  2.952500e+00  1.234000e+00
     vertex -3.870000e+00 -2.952500e+00  1.234000e+00
     vertex -3.870000e+00 -2.952500e+00  1.244000e+00
   endloop
 endfacet
 facet normal -1.000000e+00 -0.000000e+00 -0.000000e+00
   outer loop
     vertex -3.870000e+00  2.952500e+00  1.244000e+00
     vertex -3.870000e+00  2.952500e+00  1.234000e+00
     vertex -3.870000e+00 -2.952500e+00  1.244000e+00
   endloop
 endfacet
 facet normal  1.454095e-15  9.989535e-01  4.573697e-02
   outer loop
     vertex -3.870000e+00  2.952500e+00  1.244000e+00
     vertex -3.836500e+00  2.919000e+00  1.975675e+00
     vertex -3.162000e+00  2.889500e+00  2.620000e+00
   endloop
 endfacet
 facet normal  0.000000e+00  9.989535e-01  4.573697e-02
   outer loop
     vertex -3.870000e+00  2.952500e+00  1.244000e+00
     vertex -3.162000e+00  2.889500e+00  2.620000e+00
     vertex  3.870000e+00  2.952500e+00  1.244000e+00
   endloop
 endfacet
 facet normal -6.074231e-17  9.989535e-01  4.573697e-02
   outer loop
     vertex  3.870000e+00  2.952500e+00  1.244000e+00
     vertex -3.162000e+00  2.889500e+00  2.620000e+00
     vertex  3.807000e+00  2.889500e+00  2.620000e+00
   endloop
 endfacet
 facet normal  0.000000e+00 -1.000000e+00  0.000000e+00
   outer loop
     vertex -3.870000e+00 -2.952500e+00  1.234000e+00
     vertex  3.870000e+00 -2.952500e+00  1.234000e+00
     vertex  3.870000e+00 -2.952500e+00  1.244000e+00
   endloop
 endfacet
 facet normal  0.000000e+00 -1.000000e+00  0.000000e+00
   outer loop
     vertex -3.870000e+00 -2.952500e+00  1.244000e+00
     vertex -3.870000e+00 -2.952500e+00  1.234000e+00
     vertex  3.870000e+00 -2.952500e+00  1.244000e+00
   endloop
 endfacet
 facet normal  6.372352e-17  0.000000e+00  1.000000e+00
   outer loop
     vertex  3.807000e+00  2.889500e+00  2.620000e+00
     vertex -3.162000e+00 -2.889500e+00  2.620000e+00
     vertex  3.807000e+00 -2.889500e+00  2.620000e+00
   endloop
 endfacet
 facet normal  6.372352e-17  0.000000e+00  1.000000e+00
   outer loop
     vertex  3.807000e+00  2.889500e+00  2.620000e+00
     vertex -3.162000e+00  2.889500e+00  2.620000e+00
     vertex -3.162000e+00 -2.889500e+00  2.620000e+00
   endloop
 endfacet
 facet normal  9.989535e-01  0.000000e+00  4.573697e-02
   outer loop
     vertex  3.870000e+00  2.952500e+00  1.244000e+00
     vertex  3.807000e+00 -2.889500e+00  2.620000e+00
     vertex  3.870000e+00 -2.952500e+00  1.244000e+00
   endloop
 endfacet
 facet normal  9.989535e-01  0.000000e+00  4.573697e-02
   outer loop
     vertex  3.807000e+00  2.889500e+00  2.620000e+00
     vertex  3.807000e+00 -2.889500e+00  2.620000e+00
     vertex  3.870000e+00  2.952500e+00  1.244000e+00
   endloop
 endfacet
 facet normal -9.984604e-01  0.000000e+00 -5.547002e-02
   outer loop
     vertex -3.870000e+00  2.952500e+00  1.234000e+00
     vertex -3.807000e+00 -2.889500e+00  1.000000e-01
     vertex -3.870000e+00 -2.952500e+00  1.234000e+00
   endloop
 endfacet
 facet normal -9.984604e-01 -0.000000e+00 -5.547002e-02
   outer loop
     vertex -3.807000e+00  2.889500e+00  1.000000e-01
     vertex -3.807000e+00 -2.889500e+00  1.000000e-01
     vertex -3.870000e+00  2.952500e+00  1.234000e+00
   endloop
 endfacet
 facet normal  0.000000e+00  1.000000e+00  0.000000e+00
   outer loop
     vertex  3.870000e+00  2.952500e+00  1.244000e+00
     vertex  3.870000e+00  2.952500e+00  1.234000e+00
     vertex -3.870000e+00  2.952500e+00  1.234000e+00
   endloop
 endfacet
 facet normal  0.000000e+00  1.000000e+00 -0.000000e+00
   outer loop
     vertex  3.870000e+00  2.952500e+00  1.244000e+00
     vertex -3.870000e+00  2.952500e+00  1.234000e+00
     vertex -3.870000e+00  2.952500e+00  1.244000e+00
   endloop
 endfacet
 facet normal  1.000000e+00 -0.000000e+00  0.000000e+00
   outer loop
     vertex  3.870000e+00 -2.952500e+00  1.244000e+00
     vertex  3.870000e+00 -2.952500e+00  1.234000e+00
     vertex  3.870000e+00  2.952500e+00  1.234000e+00
   endloop
 endfacet
 facet normal  1.000000e+00 -0.000000e+00  0.000000e+00
   outer loop
     vertex  3.870000e+00 -2.952500e+00  1.244000e+00
     vertex  3.870000e+00  2.952500e+00  1.234000e+00
     vertex  3.870000e+00  2.952500e+00  1.244000e+00
   endloop
 endfacet
 facet normal  0.000000e+00 -9.984604e-01 -5.547002e-02
   outer loop
     vertex -3.870000e+00 -2.952500e+00  1.234000e+00
     vertex -3.807000e+00 -2.889500e+00  1.000000e-01
     vertex  3.807000e+00 -2.889500e+00  1.000000e-01
   endloop
 endfacet
 facet normal -0.000000e+00 -9.984604e-01 -5.547002e-02
   outer loop
     vertex  3.870000e+00 -2.952500e+00  1.234000e+00
     vertex -3.870000e+00 -2.952500e+00  1.234000e+00
     vertex  3.807000e+00 -2.889500e+00  1.000000e-01
   endloop
 endfacet
 facet normal  0.000000e+00  0.000000e+00 -1.000000e+00
   outer loop
     vertex -3.807000e+00 -2.889500e+00  1.000000e-01
     vertex -3.807000e+00  2.889500e+00  1.000000e-01
     vertex  3.807000e+00  2.889500e+00  1.000000e-01
   endloop
 endfacet
 facet normal  0.000000e+00  0.000000e+00 -1.000000e+00
   outer loop
     vertex  3.807000e+00 -2.889500e+00  1.000000e-01
     vertex -3.807000e+00 -2.889500e+00  1.000000e-01
     vertex  3.807000e+00  2.889500e+00  1.000000e-01
   endloop
 endfacet
 facet normal  0.000000e+00  9.984604e-01 -5.547002e-02
   outer loop
     vertex  3.807000e+00  2.889500e+00  1.000000e-01
     vertex -3.807000e+00  2.889500e+00  1.000000e-01
     vertex -3.870000e+00  2.952500e+00  1.234000e+00
   endloop
 endfacet
 facet normal  0.000000e+00  9.984604e-01 -5.547002e-02
   outer loop
     vertex  3.807000e+00  2.889500e+00  1.000000e-01
     vertex -3.870000e+00  2.952500e+00  1.234000e+00
     vertex  3.870000e+00  2.952500e+00  1.234000e+00
   endloop
 endfacet
 facet normal  9.984604e-01  0.000000e+00 -5.547002e-02
   outer loop
     vertex  3.870000e+00 -2.952500e+00  1.234000e+00
     vertex  3.807000e+00 -2.889500e+00  1.000000e-01
     vertex  3.870000e+00  2.952500e+00  1.234000e+00
   endloop
 endfacet
 facet normal  9.984604e-01  0.000000e+00 -5.547002e-02
   outer loop
     vertex  3.870000e+00  2.952500e+00  1.234000e+00
     vertex  3.807000e+00 -2.889500e+00  1.000000e-01
     vertex  3.807000e+00  2.889500e+00  1.000000e-01
   endloop
 endfacet
 facet normal  0.000000e+00 -1.000000e+00  0.000000e+00
   outer loop
     vertex -3.895882e+00 -1.525000e+00  3.407417e-03
     vertex -3.870000e+00 -1.525000e+00 -1.387779e-17
     vertex -3.870000e+00 -1.525000e+00  1.000000e-01
   endloop
 endfacet
 facet normal  0.000000e+00 -1.000000e+00  0.000000e+00
   outer loop
     vertex -3.920000e+00 -1.525000e+00  1.339746e-02
     vertex -3.895882e+00 -1.525000e+00  3.407417e-03
     vertex -3.870000e+00 -1.525000e+00  1.000000e-01
   endloop
 endfacet
 facet normal  0.000000e+00 -1.000000e+00  0.000000e+00
   outer loop
     vertex -3.940711e+00 -1.525000e+00  2.928932e-02
     vertex -3.920000e+00 -1.525000e+00  1.339746e-02
     vertex -3.870000e+00 -1.525000e+00  1.000000e-01
   endloop
 endfacet
 facet normal  0.000000e+00 -1.000000e+00  0.000000e+00
   outer loop
     vertex -3.956603e+00 -1.525000e+00  5.000000e-02
     vertex -3.940711e+00 -1.525000e+00  2.928932e-02
     vertex -3.870000e+00 -1.525000e+00  1.000000e-01
   endloop
 endfacet
 facet normal  0.000000e+00 -1.000000e+00  0.000000e+00
   outer loop
     vertex -3.966593e+00 -1.525000e+00  7.411810e-02
     vertex -3.956603e+00 -1.525000e+00  5.000000e-02
     vertex -3.870000e+00 -1.525000e+00  1.000000e-01
   endloop
 endfacet
 facet normal  0.000000e+00 -1.000000e+00  0.000000e+00
   outer loop
     vertex -3.970000e+00 -1.525000e+00  1.000000e-01
     vertex -3.966593e+00 -1.525000e+00  7.411810e-02
     vertex -3.870000e+00 -1.525000e+00  1.000000e-01
   endloop
 endfacet
 facet normal  0.000000e+00 -1.000000e+00  0.000000e+00
   outer loop
     vertex -3.970000e+00 -1.525000e+00  1.000000e-01
     vertex -3.870000e+00 -1.525000e+00  1.000000e-01
     vertex -3.970000e+00 -1.525000e+00  1.134000e+00
   endloop
 endfacet
 facet normal  0.000000e+00 -1.000000e+00 -0.000000e+00
   outer loop
     vertex -3.966593e+00 -1.525000e+00  1.159882e+00
     vertex -3.970000e+00 -1.525000e+00  1.134000e+00
     vertex -3.870000e+00 -1.525000e+00  1.134000e+00
   endloop
 endfacet
 facet normal  0.000000e+00 -1.000000e+00 -0.000000e+00
   outer loop
     vertex -3.956603e+00 -1.525000e+00  1.184000e+00
     vertex -3.966593e+00 -1.525000e+00  1.159882e+00
     vertex -3.870000e+00 -1.525000e+00  1.134000e+00
   endloop
 endfacet
 facet normal  0.000000e+00 -1.000000e+00 -0.000000e+00
   outer loop
     vertex -3.940711e+00 -1.525000e+00  1.204711e+00
     vertex -3.956603e+00 -1.525000e+00  1.184000e+00
     vertex -3.870000e+00 -1.525000e+00  1.134000e+00
   endloop
 endfacet
 facet normal  0.000000e+00 -1.000000e+00  0.000000e+00
   outer loop
     vertex -3.970000e+00 -1.525000e+00  1.134000e+00
     vertex -3.870000e+00 -1.525000e+00  1.000000e-01
     vertex -3.870000e+00 -1.525000e+00  1.134000e+00
   endloop
 endfacet
 facet normal  0.000000e+00 -1.000000e+00  0.000000e+00
   outer loop
     vertex -3.870000e+00 -1.525000e+00 -1.387779e-17
     vertex -2.830000e+00 -1.525000e+00  0.000000e+00
     vertex -2.830000e+00 -1.525000e+00  1.000000e-01
   endloop
 endfacet
 facet normal  0.000000e+00 -1.000000e+00  0.000000e+00
   outer loop
     vertex -3.870000e+00 -1.525000e+00  1.000000e-01
     vertex -3.870000e+00 -1.525000e+00 -1.387779e-17
     vertex -2.830000e+00 -1.525000e+00  1.000000e-01
   endloop
 endfacet
 facet normal  0.000000e+00 -1.000000e+00  0.000000e+00
   outer loop
     vertex -3.940711e+00 -1.525000e+00  1.204711e+00
     vertex -3.870000e+00 -1.525000e+00  1.134000e+00
     vertex -3.920000e+00 -1.525000e+00  1.220603e+00
   endloop
 endfacet
 facet normal  0.000000e+00 -1.000000e+00  0.000000e+00
   outer loop
     vertex -3.920000e+00 -1.525000e+00  1.220603e+00
     vertex -3.870000e+00 -1.525000e+00  1.134000e+00
     vertex -3.895882e+00 -1.525000e+00  1.230593e+00
   endloop
 endfacet
 facet normal  0.000000e+00 -1.000000e+00  0.000000e+00
   outer loop
     vertex -3.895882e+00 -1.525000e+00  1.230593e+00
     vertex -3.870000e+00 -1.525000e+00  1.134000e+00
     vertex -3.870000e+00 -1.525000e+00  1.234000e+00
   endloop
 endfacet
 facet normal  0.000000e+00 -1.000000e+00  0.000000e+00
   outer loop
     vertex -3.870000e+00 -1.525000e+00  1.134000e+00
     vertex -2.930000e+00 -1.525000e+00  1.134000e+00
     vertex -2.930000e+00 -1.525000e+00  1.234000e+00
   endloop
 endfacet
 facet normal  0.000000e+00 -1.000000e+00  0.000000e+00
   outer loop
     vertex -3.870000e+00 -1.525000e+00  1.234000e+00
     vertex -3.870000e+00 -1.525000e+00  1.134000e+00
     vertex -2.930000e+00 -1.525000e+00  1.234000e+00
   endloop
 endfacet
 facet normal -0.000000e+00  0.000000e+00  1.000000e+00
   outer loop
     vertex -3.870000e+00  1.525000e+00  1.234000e+00
     vertex -3.870000e+00 -1.525000e+00  1.234000e+00
     vertex -2.930000e+00 -1.525000e+00  1.234000e+00
   endloop
 endfacet
 facet normal  0.000000e+00  0.000000e+00  1.000000e+00
   outer loop
     vertex -2.930000e+00  1.525000e+00  1.234000e+00
     vertex -3.870000e+00  1.525000e+00  1.234000e+00
     vertex -2.930000e+00 -1.525000e+00  1.234000e+00
   endloop
 endfacet
 facet normal -9.914449e-01  0.000000e+00  1.305262e-01
   outer loop
     vertex -3.970000e+00  1.525000e+00  1.134000e+00
     vertex -3.970000e+00 -1.525000e+00  1.134000e+00
     vertex -3.966593e+00 -1.525000e+00  1.159882e+00
   endloop
 endfacet
 facet normal -9.914449e-01  0.000000e+00  1.305262e-01
   outer loop
     vertex -3.966593e+00  1.525000e+00  1.159882e+00
     vertex -3.970000e+00  1.525000e+00  1.134000e+00
     vertex -3.966593e+00 -1.525000e+00  1.159882e+00
   endloop
 endfacet
 facet normal -9.238795e-01  0.000000e+00  3.826834e-01
   outer loop
     vertex -3.956603e+00  1.525000e+00  1.184000e+00
     vertex -3.966593e+00 -1.525000e+00  1.159882e+00
     vertex -3.956603e+00 -1.525000e+00  1.184000e+00
   endloop
 endfacet
 facet normal -7.933533e-01  0.000000e+00  6.087614e-01
   outer loop
     vertex -3.956603e+00  1.525000e+00  1.184000e+00
     vertex -3.956603e+00 -1.525000e+00  1.184000e+00
     vertex -3.940711e+00 -1.525000e+00  1.204711e+00
   endloop
 endfacet
 facet normal -9.238795e-01  0.000000e+00  3.826834e-01
   outer loop
     vertex -3.956603e+00  1.525000e+00  1.184000e+00
     vertex -3.966593e+00  1.525000e+00  1.159882e+00
     vertex -3.966593e+00 -1.525000e+00  1.159882e+00
   endloop
 endfacet
 facet normal -7.933533e-01  0.000000e+00  6.087614e-01
   outer loop
     vertex -3.940711e+00  1.525000e+00  1.204711e+00
     vertex -3.956603e+00  1.525000e+00  1.184000e+00
     vertex -3.940711e+00 -1.525000e+00  1.204711e+00
   endloop
 endfacet
 facet normal -6.087614e-01  0.000000e+00  7.933533e-01
   outer loop
     vertex -3.920000e+00  1.525000e+00  1.220603e+00
     vertex -3.940711e+00 -1.525000e+00  1.204711e+00
     vertex -3.920000e+00 -1.525000e+00  1.220603e+00
   endloop
 endfacet
 facet normal -6.087614e-01  0.000000e+00  7.933533e-01
   outer loop
     vertex -3.920000e+00  1.525000e+00  1.220603e+00
     vertex -3.940711e+00  1.525000e+00  1.204711e+00
     vertex -3.940711e+00 -1.525000e+00  1.204711e+00
   endloop
 endfacet
 facet normal -3.826834e-01  0.000000e+00  9.238795e-01
   outer loop
     vertex -3.895882e+00  1.525000e+00  1.230593e+00
     vertex -3.920000e+00 -1.525000e+00  1.220603e+00
     vertex -3.895882e+00 -1.525000e+00  1.230593e+00
   endloop
 endfacet
 facet normal -1.305262e-01  0.000000e+00  9.914449e-01
   outer loop
     vertex -3.895882e+00  1.525000e+00  1.230593e+00
     vertex -3.895882e+00 -1.525000e+00  1.230593e+00
     vertex -3.870000e+00 -1.525000e+00  1.234000e+00
   endloop
 endfacet
 facet normal -3.826834e-01  0.000000e+00  9.238795e-01
   outer loop
     vertex -3.895882e+00  1.525000e+00  1.230593e+00
     vertex -3.920000e+00  1.525000e+00  1.220603e+00
     vertex -3.920000e+00 -1.525000e+00  1.220603e+00
   endloop
 endfacet
 facet normal -1.305262e-01  0.000000e+00  9.914449e-01
   outer loop
     vertex -3.870000e+00  1.525000e+00  1.234000e+00
     vertex -3.895882e+00  1.525000e+00  1.230593e+00
     vertex -3.870000e+00 -1.525000e+00  1.234000e+00
   endloop
 endfacet
 facet normal  1.000000e+00 -0.000000e+00  0.000000e+00
   outer loop
     vertex -2.930000e+00 -1.525000e+00  1.234000e+00
     vertex -2.930000e+00  1.525000e+00  1.134000e+00
     vertex -2.930000e+00  1.525000e+00  1.234000e+00
   endloop
 endfacet
 facet normal  1.000000e+00 -0.000000e+00  0.000000e+00
   outer loop
     vertex -2.930000e+00 -1.525000e+00  1.234000e+00
     vertex -2.930000e+00 -1.525000e+00  1.134000e+00
     vertex -2.930000e+00  1.525000e+00  1.134000e+00
   endloop
 endfacet
 facet normal -1.000000e+00 -0.000000e+00 -0.000000e+00
   outer loop
     vertex -3.970000e+00  1.525000e+00  1.134000e+00
     vertex -3.970000e+00  1.525000e+00  1.000000e-01
     vertex -3.970000e+00 -1.525000e+00  1.000000e-01
   endloop
 endfacet
 facet normal -1.000000e+00 -0.000000e+00  0.000000e+00
   outer loop
     vertex -3.970000e+00  1.525000e+00  1.134000e+00
     vertex -3.970000e+00 -1.525000e+00  1.000000e-01
     vertex -3.970000e+00 -1.525000e+00  1.134000e+00
   endloop
 endfacet
 facet normal  0.000000e+00  0.000000e+00 -1.000000e+00
   outer loop
     vertex -2.930000e+00 -1.525000e+00  1.134000e+00
     vertex -3.870000e+00 -1.525000e+00  1.134000e+00
     vertex -3.870000e+00  1.525000e+00  1.134000e+00
   endloop
 endfacet
 facet normal  0.000000e+00  0.000000e+00 -1.000000e+00
   outer loop
     vertex -2.930000e+00 -1.525000e+00  1.134000e+00
     vertex -3.870000e+00  1.525000e+00  1.134000e+00
     vertex -2.930000e+00  1.525000e+00  1.134000e+00
   endloop
 endfacet
 facet normal -1.305262e-01 -0.000000e+00 -9.914449e-01
   outer loop
     vertex -3.870000e+00  1.525000e+00 -1.387779e-17
     vertex -3.870000e+00 -1.525000e+00 -1.387779e-17
     vertex -3.895882e+00 -1.525000e+00  3.407417e-03
   endloop
 endfacet
 facet normal -1.305262e-01  0.000000e+00 -9.914449e-01
   outer loop
     vertex -3.895882e+00  1.525000e+00  3.407417e-03
     vertex -3.870000e+00  1.525000e+00 -1.387779e-17
     vertex -3.895882e+00 -1.525000e+00  3.407417e-03
   endloop
 endfacet
 facet normal -3.826834e-01  0.000000e+00 -9.238795e-01
   outer loop
     vertex -3.920000e+00  1.525000e+00  1.339746e-02
     vertex -3.895882e+00 -1.525000e+00  3.407417e-03
     vertex -3.920000e+00 -1.525000e+00  1.339746e-02
   endloop
 endfacet
 facet normal -3.826834e-01 -0.000000e+00 -9.238795e-01
   outer loop
     vertex -3.920000e+00  1.525000e+00  1.339746e-02
     vertex -3.895882e+00  1.525000e+00  3.407417e-03
     vertex -3.895882e+00 -1.525000e+00  3.407417e-03
   endloop
 endfacet
 facet normal -6.087614e-01  0.000000e+00 -7.933533e-01
   outer loop
     vertex -3.940711e+00  1.525000e+00  2.928932e-02
     vertex -3.920000e+00 -1.525000e+00  1.339746e-02
     vertex -3.940711e+00 -1.525000e+00  2.928932e-02
   endloop
 endfacet
 facet normal -7.933533e-01 -0.000000e+00 -6.087614e-01
   outer loop
     vertex -3.940711e+00  1.525000e+00  2.928932e-02
     vertex -3.940711e+00 -1.525000e+00  2.928932e-02
     vertex -3.956603e+00 -1.525000e+00  5.000000e-02
   endloop
 endfacet
 facet normal -6.087614e-01 -0.000000e+00 -7.933533e-01
   outer loop
     vertex -3.940711e+00  1.525000e+00  2.928932e-02
     vertex -3.920000e+00  1.525000e+00  1.339746e-02
     vertex -3.920000e+00 -1.525000e+00  1.339746e-02
   endloop
 endfacet
 facet normal -7.933533e-01  0.000000e+00 -6.087614e-01
   outer loop
     vertex -3.956603e+00  1.525000e+00  5.000000e-02
     vertex -3.940711e+00  1.525000e+00  2.928932e-02
     vertex -3.956603e+00 -1.525000e+00  5.000000e-02
   endloop
 endfacet
 facet normal -9.238795e-01  0.000000e+00 -3.826834e-01
   outer loop
     vertex -3.966593e+00  1.525000e+00  7.411810e-02
     vertex -3.956603e+00 -1.525000e+00  5.000000e-02
     vertex -3.966593e+00 -1.525000e+00  7.411810e-02
   endloop
 endfacet
 facet normal -9.914449e-01 -0.000000e+00 -1.305262e-01
   outer loop
     vertex -3.966593e+00  1.525000e+00  7.411810e-02
     vertex -3.966593e+00 -1.525000e+00  7.411810e-02
     vertex -3.970000e+00 -1.525000e+00  1.000000e-01
   endloop
 endfacet
 facet normal -9.238795e-01 -0.000000e+00 -3.826834e-01
   outer loop
     vertex -3.966593e+00  1.525000e+00  7.411810e-02
     vertex -3.956603e+00  1.525000e+00  5.000000e-02
     vertex -3.956603e+00 -1.525000e+00  5.000000e-02
   endloop
 endfacet
 facet normal -9.914449e-01  0.000000e+00 -1.305262e-01
   outer loop
     vertex -3.970000e+00  1.525000e+00  1.000000e-01
     vertex -3.966593e+00  1.525000e+00  7.411810e-02
     vertex -3.970000e+00 -1.525000e+00  1.000000e-01
   endloop
 endfacet
 facet normal  1.000000e+00  0.000000e+00  0.000000e+00
   outer loop
     vertex -3.870000e+00 -1.525000e+00  1.000000e-01
     vertex -3.870000e+00  1.525000e+00  1.000000e-01
     vertex -3.870000e+00  1.525000e+00  1.134000e+00
   endloop
 endfacet
 facet normal  1.000000e+00 -0.000000e+00  0.000000e+00
   outer loop
     vertex -3.870000e+00 -1.525000e+00  1.134000e+00
     vertex -3.870000e+00 -1.525000e+00  1.000000e-01
     vertex -3.870000e+00  1.525000e+00  1.134000e+00
   endloop
 endfacet
 facet normal  1.334403e-17  0.000000e+00 -1.000000e+00
   outer loop
     vertex -3.870000e+00 -1.525000e+00 -1.387779e-17
     vertex -3.870000e+00  1.525000e+00 -1.387779e-17
     vertex -2.830000e+00  1.525000e+00  0.000000e+00
   endloop
 endfacet
 facet normal  1.334403e-17  0.000000e+00 -1.000000e+00
   outer loop
     vertex -2.830000e+00 -1.525000e+00  0.000000e+00
     vertex -3.870000e+00 -1.525000e+00 -1.387779e-17
     vertex -2.830000e+00  1.525000e+00  0.000000e+00
   endloop
 endfacet
 facet normal -0.000000e+00  0.000000e+00  1.000000e+00
   outer loop
     vertex -2.830000e+00  1.525000e+00  1.000000e-01
     vertex -3.870000e+00 -1.525000e+00  1.000000e-01
     vertex -2.830000e+00 -1.525000e+00  1.000000e-01
   endloop
 endfacet
 facet normal  0.000000e+00  0.000000e+00  1.000000e+00
   outer loop
     vertex -2.830000e+00  1.525000e+00  1.000000e-01
     vertex -3.870000e+00  1.525000e+00  1.000000e-01
     vertex -3.870000e+00 -1.525000e+00  1.000000e-01
   endloop
 endfacet
 facet normal  1.000000e+00 -0.000000e+00  0.000000e+00
   outer loop
     vertex -2.830000e+00 -1.525000e+00  1.000000e-01
     vertex -2.830000e+00  1.525000e+00  0.000000e+00
     vertex -2.830000e+00  1.525000e+00  1.000000e-01
   endloop
 endfacet
 facet normal  1.000000e+00 -0.000000e+00  0.000000e+00
   outer loop
     vertex -2.830000e+00 -1.525000e+00  1.000000e-01
     vertex -2.830000e+00 -1.525000e+00  0.000000e+00
     vertex -2.830000e+00  1.525000e+00  0.000000e+00
   endloop
 endfacet
 facet normal  0.000000e+00  1.000000e+00  0.000000e+00
   outer loop
     vertex -3.870000e+00  1.525000e+00  1.000000e-01
     vertex -3.870000e+00  1.525000e+00 -1.387779e-17
     vertex -3.895882e+00  1.525000e+00  3.407417e-03
   endloop
 endfacet
 facet normal  0.000000e+00  1.000000e+00  0.000000e+00
   outer loop
     vertex -3.870000e+00  1.525000e+00  1.000000e-01
     vertex -3.895882e+00  1.525000e+00  3.407417e-03
     vertex -3.920000e+00  1.525000e+00  1.339746e-02
   endloop
 endfacet
 facet normal  0.000000e+00  1.000000e+00  0.000000e+00
   outer loop
     vertex -3.870000e+00  1.525000e+00  1.000000e-01
     vertex -3.920000e+00  1.525000e+00  1.339746e-02
     vertex -3.940711e+00  1.525000e+00  2.928932e-02
   endloop
 endfacet
 facet normal  0.000000e+00  1.000000e+00  0.000000e+00
   outer loop
     vertex -3.870000e+00  1.525000e+00  1.000000e-01
     vertex -3.940711e+00  1.525000e+00  2.928932e-02
     vertex -3.956603e+00  1.525000e+00  5.000000e-02
   endloop
 endfacet
 facet normal  0.000000e+00  1.000000e+00  0.000000e+00
   outer loop
     vertex -3.870000e+00  1.525000e+00  1.000000e-01
     vertex -3.956603e+00  1.525000e+00  5.000000e-02
     vertex -3.966593e+00  1.525000e+00  7.411810e-02
   endloop
 endfacet
 facet normal  0.000000e+00  1.000000e+00  0.000000e+00
   outer loop
     vertex -3.870000e+00  1.525000e+00  1.000000e-01
     vertex -3.966593e+00  1.525000e+00  7.411810e-02
     vertex -3.970000e+00  1.525000e+00  1.000000e-01
   endloop
 endfacet
 facet normal  0.000000e+00  1.000000e+00  0.000000e+00
   outer loop
     vertex -3.970000e+00  1.525000e+00  1.134000e+00
     vertex -3.870000e+00  1.525000e+00  1.000000e-01
     vertex -3.970000e+00  1.525000e+00  1.000000e-01
   endloop
 endfacet
 facet normal  0.000000e+00  1.000000e+00 -0.000000e+00
   outer loop
     vertex -3.870000e+00  1.525000e+00  1.134000e+00
     vertex -3.970000e+00  1.525000e+00  1.134000e+00
     vertex -3.966593e+00  1.525000e+00  1.159882e+00
   endloop
 endfacet
 facet normal  0.000000e+00  1.000000e+00 -0.000000e+00
   outer loop
     vertex -3.870000e+00  1.525000e+00  1.134000e+00
     vertex -3.966593e+00  1.525000e+00  1.159882e+00
     vertex -3.956603e+00  1.525000e+00  1.184000e+00
   endloop
 endfacet
 facet normal  0.000000e+00  1.000000e+00 -0.000000e+00
   outer loop
     vertex -3.870000e+00  1.525000e+00  1.134000e+00
     vertex -3.956603e+00  1.525000e+00  1.184000e+00
     vertex -3.940711e+00  1.525000e+00  1.204711e+00
   endloop
 endfacet
 facet normal  0.000000e+00  1.000000e+00  0.000000e+00
   outer loop
     vertex -3.870000e+00  1.525000e+00  1.134000e+00
     vertex -3.870000e+00  1.525000e+00  1.000000e-01
     vertex -3.970000e+00  1.525000e+00  1.134000e+00
   endloop
 endfacet
 facet normal  0.000000e+00  1.000000e+00  0.000000e+00
   outer loop
     vertex -2.830000e+00  1.525000e+00  1.000000e-01
     vertex -2.830000e+00  1.525000e+00  0.000000e+00
     vertex -3.870000e+00  1.525000e+00 -1.387779e-17
   endloop
 endfacet
 facet normal  0.000000e+00  1.000000e+00 -0.000000e+00
   outer loop
     vertex -2.830000e+00  1.525000e+00  1.000000e-01
     vertex -3.870000e+00  1.525000e+00 -1.387779e-17
     vertex -3.870000e+00  1.525000e+00  1.000000e-01
   endloop
 endfacet
 facet normal  0.000000e+00  1.000000e+00  0.000000e+00
   outer loop
     vertex -3.920000e+00  1.525000e+00  1.220603e+00
     vertex -3.870000e+00  1.525000e+00  1.134000e+00
     vertex -3.940711e+00  1.525000e+00  1.204711e+00
   endloop
 endfacet
 facet normal  0.000000e+00  1.000000e+00  0.000000e+00
   outer loop
     vertex -3.895882e+00  1.525000e+00  1.230593e+00
     vertex -3.870000e+00  1.525000e+00  1.134000e+00
     vertex -3.920000e+00  1.525000e+00  1.220603e+00
   endloop
 endfacet
 facet normal  0.000000e+00  1.000000e+00  0.000000e+00
   outer loop
     vertex -3.870000e+00  1.525000e+00  1.234000e+00
     vertex -3.870000e+00  1.525000e+00  1.134000e+00
     vertex -3.895882e+00  1.525000e+00  1.230593e+00
   endloop
 endfacet
 facet normal  0.000000e+00  1.000000e+00  0.000000e+00
   outer loop
     vertex -2.930000e+00  1.525000e+00  1.234000e+00
     vertex -2.930000e+00  1.525000e+00  1.134000e+00
     vertex -3.870000e+00  1.525000e+00  1.134000e+00
   endloop
 endfacet
 facet normal  0.000000e+00  1.000000e+00 -0.000000e+00
   outer loop
     vertex -2.930000e+00  1.525000e+00  1.234000e+00
     vertex -3.870000e+00  1.525000e+00  1.134000e+00
     vertex -3.870000e+00  1.525000e+00  1.234000e+00
   endloop
 endfacet
 facet normal  1.000000e+00  0.000000e+00  0.000000e+00
   outer loop
     vertex  3.970000e+00 -1.525000e+00  1.000000e-01
     vertex  3.970000e+00  1.525000e+00  1.000000e-01
     vertex  3.970000e+00  1.525000e+00  1.134000e+00
   endloop
 endfacet
 facet normal  1.000000e+00 -0.000000e+00  0.000000e+00
   outer loop
     vertex  3.970000e+00 -1.525000e+00  1.134000e+00
     vertex  3.970000e+00 -1.525000e+00  1.000000e-01
     vertex  3.970000e+00  1.525000e+00  1.134000e+00
   endloop
 endfacet
 facet normal  0.000000e+00 -1.000000e+00  0.000000e+00
   outer loop
     vertex  2.730000e+00 -1.525000e+00  0.000000e+00
     vertex  3.870000e+00 -1.525000e+00 -1.387779e-17
     vertex  3.870000e+00 -1.525000e+00  1.000000e-01
   endloop
 endfacet
 facet normal  0.000000e+00 -1.000000e+00  0.000000e+00
   outer loop
     vertex  3.895882e+00 -1.525000e+00  3.407417e-03
     vertex  3.920000e+00 -1.525000e+00  1.339746e-02
     vertex  3.870000e+00 -1.525000e+00  1.000000e-01
   endloop
 endfacet
 facet normal  0.000000e+00 -1.000000e+00  0.000000e+00
   outer loop
     vertex  3.870000e+00 -1.525000e+00 -1.387779e-17
     vertex  3.895882e+00 -1.525000e+00  3.407417e-03
     vertex  3.870000e+00 -1.525000e+00  1.000000e-01
   endloop
 endfacet
 facet normal  0.000000e+00 -1.000000e+00  0.000000e+00
   outer loop
     vertex  2.730000e+00 -1.525000e+00  1.000000e-01
     vertex  2.730000e+00 -1.525000e+00  0.000000e+00
     vertex  3.870000e+00 -1.525000e+00  1.000000e-01
   endloop
 endfacet
 facet normal  0.000000e+00 -1.000000e+00  0.000000e+00
   outer loop
     vertex  3.870000e+00 -1.525000e+00  1.000000e-01
     vertex  3.920000e+00 -1.525000e+00  1.339746e-02
     vertex  3.940711e+00 -1.525000e+00  2.928932e-02
   endloop
 endfacet
 facet normal  0.000000e+00 -1.000000e+00  0.000000e+00
   outer loop
     vertex  3.870000e+00 -1.525000e+00  1.000000e-01
     vertex  3.940711e+00 -1.525000e+00  2.928932e-02
     vertex  3.956603e+00 -1.525000e+00  5.000000e-02
   endloop
 endfacet
 facet normal  0.000000e+00 -1.000000e+00  0.000000e+00
   outer loop
     vertex  3.870000e+00 -1.525000e+00  1.000000e-01
     vertex  3.956603e+00 -1.525000e+00  5.000000e-02
     vertex  3.966593e+00 -1.525000e+00  7.411810e-02
   endloop
 endfacet
 facet normal  0.000000e+00 -1.000000e+00  0.000000e+00
   outer loop
     vertex  3.870000e+00 -1.525000e+00  1.000000e-01
     vertex  3.966593e+00 -1.525000e+00  7.411810e-02
     vertex  3.970000e+00 -1.525000e+00  1.000000e-01
   endloop
 endfacet
 facet normal  0.000000e+00 -1.000000e+00  0.000000e+00
   outer loop
     vertex  3.870000e+00 -1.525000e+00  1.134000e+00
     vertex  3.870000e+00 -1.525000e+00  1.000000e-01
     vertex  3.970000e+00 -1.525000e+00  1.134000e+00
   endloop
 endfacet
 facet normal  0.000000e+00 -1.000000e+00  0.000000e+00
   outer loop
     vertex  3.870000e+00 -1.525000e+00  1.000000e-01
     vertex  3.970000e+00 -1.525000e+00  1.000000e-01
     vertex  3.970000e+00 -1.525000e+00  1.134000e+00
   endloop
 endfacet
 facet normal  0.000000e+00 -1.000000e+00  0.000000e+00
   outer loop
     vertex  2.830000e+00 -1.525000e+00  1.134000e+00
     vertex  3.870000e+00 -1.525000e+00  1.134000e+00
     vertex  3.870000e+00 -1.525000e+00  1.234000e+00
   endloop
 endfacet
 facet normal  0.000000e+00 -1.000000e+00  0.000000e+00
   outer loop
     vertex  2.830000e+00 -1.525000e+00  1.234000e+00
     vertex  2.830000e+00 -1.525000e+00  1.134000e+00
     vertex  3.870000e+00 -1.525000e+00  1.234000e+00
   endloop
 endfacet
 facet normal  0.000000e+00 -1.000000e+00  0.000000e+00
   outer loop
     vertex  3.870000e+00 -1.525000e+00  1.234000e+00
     vertex  3.870000e+00 -1.525000e+00  1.134000e+00
     vertex  3.895882e+00 -1.525000e+00  1.230593e+00
   endloop
 endfacet
 facet normal  0.000000e+00 -1.000000e+00  0.000000e+00
   outer loop
     vertex  3.870000e+00 -1.525000e+00  1.134000e+00
     vertex  3.970000e+00 -1.525000e+00  1.134000e+00
     vertex  3.966593e+00 -1.525000e+00  1.159882e+00
   endloop
 endfacet
 facet normal  0.000000e+00 -1.000000e+00 -0.000000e+00
   outer loop
     vertex  3.895882e+00 -1.525000e+00  1.230593e+00
     vertex  3.870000e+00 -1.525000e+00  1.134000e+00
     vertex  3.920000e+00 -1.525000e+00  1.220603e+00
   endloop
 endfacet
 facet normal  0.000000e+00 -1.000000e+00  0.000000e+00
   outer loop
     vertex  3.870000e+00 -1.525000e+00  1.134000e+00
     vertex  3.966593e+00 -1.525000e+00  1.159882e+00
     vertex  3.956603e+00 -1.525000e+00  1.184000e+00
   endloop
 endfacet
 facet normal  0.000000e+00 -1.000000e+00  0.000000e+00
   outer loop
     vertex  3.870000e+00 -1.525000e+00  1.134000e+00
     vertex  3.956603e+00 -1.525000e+00  1.184000e+00
     vertex  3.940711e+00 -1.525000e+00  1.204711e+00
   endloop
 endfacet
 facet normal  0.000000e+00 -1.000000e+00 -0.000000e+00
   outer loop
     vertex  3.920000e+00 -1.525000e+00  1.220603e+00
     vertex  3.870000e+00 -1.525000e+00  1.134000e+00
     vertex  3.940711e+00 -1.525000e+00  1.204711e+00
   endloop
 endfacet
 facet normal  9.914449e-01  0.000000e+00 -1.305262e-01
   outer loop
     vertex  3.966593e+00  1.525000e+00  7.411810e-02
     vertex  3.970000e+00 -1.525000e+00  1.000000e-01
     vertex  3.966593e+00 -1.525000e+00  7.411810e-02
   endloop
 endfacet
 facet normal  9.914449e-01  0.000000e+00 -1.305262e-01
   outer loop
     vertex  3.966593e+00  1.525000e+00  7.411810e-02
     vertex  3.970000e+00  1.525000e+00  1.000000e-01
     vertex  3.970000e+00 -1.525000e+00  1.000000e-01
   endloop
 endfacet
 facet normal  9.238795e-01  0.000000e+00 -3.826834e-01
   outer loop
     vertex  3.956603e+00  1.525000e+00  5.000000e-02
     vertex  3.966593e+00 -1.525000e+00  7.411810e-02
     vertex  3.956603e+00 -1.525000e+00  5.000000e-02
   endloop
 endfacet
 facet normal  9.238795e-01  0.000000e+00 -3.826834e-01
   outer loop
     vertex  3.956603e+00  1.525000e+00  5.000000e-02
     vertex  3.966593e+00  1.525000e+00  7.411810e-02
     vertex  3.966593e+00 -1.525000e+00  7.411810e-02
   endloop
 endfacet
 facet normal  7.933533e-01  0.000000e+00 -6.087614e-01
   outer loop
     vertex  3.940711e+00  1.525000e+00  2.928932e-02
     vertex  3.956603e+00 -1.525000e+00  5.000000e-02
     vertex  3.940711e+00 -1.525000e+00  2.928932e-02
   endloop
 endfacet
 facet normal  7.933533e-01  0.000000e+00 -6.087614e-01
   outer loop
     vertex  3.940711e+00  1.525000e+00  2.928932e-02
     vertex  3.956603e+00  1.525000e+00  5.000000e-02
     vertex  3.956603e+00 -1.525000e+00  5.000000e-02
   endloop
 endfacet
 facet normal  6.087614e-01  0.000000e+00 -7.933533e-01
   outer loop
     vertex  3.920000e+00  1.525000e+00  1.339746e-02
     vertex  3.940711e+00 -1.525000e+00  2.928932e-02
     vertex  3.920000e+00 -1.525000e+00  1.339746e-02
   endloop
 endfacet
 facet normal  6.087614e-01  0.000000e+00 -7.933533e-01
   outer loop
     vertex  3.920000e+00  1.525000e+00  1.339746e-02
     vertex  3.940711e+00  1.525000e+00  2.928932e-02
     vertex  3.940711e+00 -1.525000e+00  2.928932e-02
   endloop
 endfacet
 facet normal  3.826834e-01  0.000000e+00 -9.238795e-01
   outer loop
     vertex  3.895882e+00  1.525000e+00  3.407417e-03
     vertex  3.920000e+00 -1.525000e+00  1.339746e-02
     vertex  3.895882e+00 -1.525000e+00  3.407417e-03
   endloop
 endfacet
 facet normal  1.305262e-01  0.000000e+00 -9.914449e-01
   outer loop
     vertex  3.895882e+00  1.525000e+00  3.407417e-03
     vertex  3.895882e+00 -1.525000e+00  3.407417e-03
     vertex  3.870000e+00 -1.525000e+00 -1.387779e-17
   endloop
 endfacet
 facet normal  3.826834e-01  0.000000e+00 -9.238795e-01
   outer loop
     vertex  3.895882e+00  1.525000e+00  3.407417e-03
     vertex  3.920000e+00  1.525000e+00  1.339746e-02
     vertex  3.920000e+00 -1.525000e+00  1.339746e-02
   endloop
 endfacet
 facet normal  1.305262e-01  0.000000e+00 -9.914449e-01
   outer loop
     vertex  3.870000e+00  1.525000e+00 -1.387779e-17
     vertex  3.895882e+00  1.525000e+00  3.407417e-03
     vertex  3.870000e+00 -1.525000e+00 -1.387779e-17
   endloop
 endfacet
 facet normal  9.914449e-01 -0.000000e+00  1.305262e-01
   outer loop
     vertex  3.966593e+00 -1.525000e+00  1.159882e+00
     vertex  3.970000e+00 -1.525000e+00  1.134000e+00
     vertex  3.970000e+00  1.525000e+00  1.134000e+00
   endloop
 endfacet
 facet normal  9.914449e-01  0.000000e+00  1.305262e-01
   outer loop
     vertex  3.966593e+00 -1.525000e+00  1.159882e+00
     vertex  3.970000e+00  1.525000e+00  1.134000e+00
     vertex  3.966593e+00  1.525000e+00  1.159882e+00
   endloop
 endfacet
 facet normal  9.238795e-01  0.000000e+00  3.826834e-01
   outer loop
     vertex  3.956603e+00 -1.525000e+00  1.184000e+00
     vertex  3.966593e+00 -1.525000e+00  1.159882e+00
     vertex  3.956603e+00  1.525000e+00  1.184000e+00
   endloop
 endfacet
 facet normal  7.933533e-01 -0.000000e+00  6.087614e-01
   outer loop
     vertex  3.940711e+00 -1.525000e+00  1.204711e+00
     vertex  3.956603e+00 -1.525000e+00  1.184000e+00
     vertex  3.956603e+00  1.525000e+00  1.184000e+00
   endloop
 endfacet
 facet normal  9.238795e-01 -0.000000e+00  3.826834e-01
   outer loop
     vertex  3.966593e+00 -1.525000e+00  1.159882e+00
     vertex  3.966593e+00  1.525000e+00  1.159882e+00
     vertex  3.956603e+00  1.525000e+00  1.184000e+00
   endloop
 endfacet
 facet normal  7.933533e-01  0.000000e+00  6.087614e-01
   outer loop
     vertex  3.940711e+00 -1.525000e+00  1.204711e+00
     vertex  3.956603e+00  1.525000e+00  1.184000e+00
     vertex  3.940711e+00  1.525000e+00  1.204711e+00
   endloop
 endfacet
 facet normal  6.087614e-01  0.000000e+00  7.933533e-01
   outer loop
     vertex  3.920000e+00 -1.525000e+00  1.220603e+00
     vertex  3.940711e+00 -1.525000e+00  1.204711e+00
     vertex  3.920000e+00  1.525000e+00  1.220603e+00
   endloop
 endfacet
 facet normal  6.087614e-01 -0.000000e+00  7.933533e-01
   outer loop
     vertex  3.940711e+00 -1.525000e+00  1.204711e+00
     vertex  3.940711e+00  1.525000e+00  1.204711e+00
     vertex  3.920000e+00  1.525000e+00  1.220603e+00
   endloop
 endfacet
 facet normal  3.826834e-01  0.000000e+00  9.238795e-01
   outer loop
     vertex  3.895882e+00 -1.525000e+00  1.230593e+00
     vertex  3.920000e+00 -1.525000e+00  1.220603e+00
     vertex  3.895882e+00  1.525000e+00  1.230593e+00
   endloop
 endfacet
 facet normal  1.305262e-01 -0.000000e+00  9.914449e-01
   outer loop
     vertex  3.870000e+00 -1.525000e+00  1.234000e+00
     vertex  3.895882e+00 -1.525000e+00  1.230593e+00
     vertex  3.895882e+00  1.525000e+00  1.230593e+00
   endloop
 endfacet
 facet normal  3.826834e-01 -0.000000e+00  9.238795e-01
   outer loop
     vertex  3.920000e+00 -1.525000e+00  1.220603e+00
     vertex  3.920000e+00  1.525000e+00  1.220603e+00
     vertex  3.895882e+00  1.525000e+00  1.230593e+00
   endloop
 endfacet
 facet normal  1.305262e-01  0.000000e+00  9.914449e-01
   outer loop
     vertex  3.870000e+00 -1.525000e+00  1.234000e+00
     vertex  3.895882e+00  1.525000e+00  1.230593e+00
     vertex  3.870000e+00  1.525000e+00  1.234000e+00
   endloop
 endfacet
 facet normal  0.000000e+00  1.000000e+00  0.000000e+00
   outer loop
     vertex  3.870000e+00  1.525000e+00  1.000000e-01
     vertex  3.920000e+00  1.525000e+00  1.339746e-02
     vertex  3.895882e+00  1.525000e+00  3.407417e-03
   endloop
 endfacet
 facet normal  0.000000e+00  1.000000e+00  0.000000e+00
   outer loop
     vertex  3.870000e+00  1.525000e+00  1.000000e-01
     vertex  3.895882e+00  1.525000e+00  3.407417e-03
     vertex  3.870000e+00  1.525000e+00 -1.387779e-17
   endloop
 endfacet
 facet normal  0.000000e+00  1.000000e+00  0.000000e+00
   outer loop
     vertex  3.870000e+00  1.525000e+00  1.000000e-01
     vertex  3.870000e+00  1.525000e+00 -1.387779e-17
     vertex  2.730000e+00  1.525000e+00  0.000000e+00
   endloop
 endfacet
 facet normal  0.000000e+00  1.000000e+00 -0.000000e+00
   outer loop
     vertex  3.870000e+00  1.525000e+00  1.000000e-01
     vertex  2.730000e+00  1.525000e+00  0.000000e+00
     vertex  2.730000e+00  1.525000e+00  1.000000e-01
   endloop
 endfacet
 facet normal  0.000000e+00  1.000000e+00  0.000000e+00
   outer loop
     vertex  3.940711e+00  1.525000e+00  2.928932e-02
     vertex  3.920000e+00  1.525000e+00  1.339746e-02
     vertex  3.870000e+00  1.525000e+00  1.000000e-01
   endloop
 endfacet
 facet normal  0.000000e+00  1.000000e+00  0.000000e+00
   outer loop
     vertex  3.956603e+00  1.525000e+00  5.000000e-02
     vertex  3.940711e+00  1.525000e+00  2.928932e-02
     vertex  3.870000e+00  1.525000e+00  1.000000e-01
   endloop
 endfacet
 facet normal  0.000000e+00  1.000000e+00  0.000000e+00
   outer loop
     vertex  3.966593e+00  1.525000e+00  7.411810e-02
     vertex  3.956603e+00  1.525000e+00  5.000000e-02
     vertex  3.870000e+00  1.525000e+00  1.000000e-01
   endloop
 endfacet
 facet normal  0.000000e+00  1.000000e+00  0.000000e+00
   outer loop
     vertex  3.970000e+00  1.525000e+00  1.000000e-01
     vertex  3.966593e+00  1.525000e+00  7.411810e-02
     vertex  3.870000e+00  1.525000e+00  1.000000e-01
   endloop
 endfacet
 facet normal  0.000000e+00  1.000000e+00 -0.000000e+00
   outer loop
     vertex  3.870000e+00  1.525000e+00  1.234000e+00
     vertex  2.830000e+00  1.525000e+00  1.134000e+00
     vertex  2.830000e+00  1.525000e+00  1.234000e+00
   endloop
 endfacet
 facet normal  0.000000e+00  1.000000e+00  0.000000e+00
   outer loop
     vertex  3.870000e+00  1.525000e+00  1.234000e+00
     vertex  3.870000e+00  1.525000e+00  1.134000e+00
     vertex  2.830000e+00  1.525000e+00  1.134000e+00
   endloop
 endfacet
 facet normal  0.000000e+00  1.000000e+00 -0.000000e+00
   outer loop
     vertex  3.970000e+00  1.525000e+00  1.134000e+00
     vertex  3.870000e+00  1.525000e+00  1.000000e-01
     vertex  3.870000e+00  1.525000e+00  1.134000e+00
   endloop
 endfacet
 facet normal  0.000000e+00  1.000000e+00  0.000000e+00
   outer loop
     vertex  3.970000e+00  1.525000e+00  1.134000e+00
     vertex  3.970000e+00  1.525000e+00  1.000000e-01
     vertex  3.870000e+00  1.525000e+00  1.000000e-01
   endloop
 endfacet
 facet normal  0.000000e+00  1.000000e+00  0.000000e+00
   outer loop
     vertex  3.966593e+00  1.525000e+00  1.159882e+00
     vertex  3.970000e+00  1.525000e+00  1.134000e+00
     vertex  3.870000e+00  1.525000e+00  1.134000e+00
   endloop
 endfacet
 facet normal  0.000000e+00  1.000000e+00 -0.000000e+00
   outer loop
     vertex  3.895882e+00  1.525000e+00  1.230593e+00
     vertex  3.870000e+00  1.525000e+00  1.134000e+00
     vertex  3.870000e+00  1.525000e+00  1.234000e+00
   endloop
 endfacet
 facet normal  0.000000e+00  1.000000e+00  0.000000e+00
   outer loop
     vertex  3.956603e+00  1.525000e+00  1.184000e+00
     vertex  3.966593e+00  1.525000e+00  1.159882e+00
     vertex  3.870000e+00  1.525000e+00  1.134000e+00
   endloop
 endfacet
 facet normal  0.000000e+00  1.000000e+00 -0.000000e+00
   outer loop
     vertex  3.920000e+00  1.525000e+00  1.220603e+00
     vertex  3.870000e+00  1.525000e+00  1.134000e+00
     vertex  3.895882e+00  1.525000e+00  1.230593e+00
   endloop
 endfacet
 facet normal  0.000000e+00  1.000000e+00  0.000000e+00
   outer loop
     vertex  3.940711e+00  1.525000e+00  1.204711e+00
     vertex  3.956603e+00  1.525000e+00  1.184000e+00
     vertex  3.870000e+00  1.525000e+00  1.134000e+00
   endloop
 endfacet
 facet normal  0.000000e+00  1.000000e+00 -0.000000e+00
   outer loop
     vertex  3.940711e+00  1.525000e+00  1.204711e+00
     vertex  3.870000e+00  1.525000e+00  1.134000e+00
     vertex  3.920000e+00  1.525000e+00  1.220603e+00
   endloop
 endfacet
 facet normal -1.217350e-17  0.000000e+00 -1.000000e+00
   outer loop
     vertex  2.730000e+00 -1.525000e+00  0.000000e+00
     vertex  2.730000e+00  1.525000e+00  0.000000e+00
     vertex  3.870000e+00  1.525000e+00 -1.387779e-17
   endloop
 endfacet
 facet normal -1.217350e-17  0.000000e+00 -1.000000e+00
   outer loop
     vertex  3.870000e+00 -1.525000e+00 -1.387779e-17
     vertex  2.730000e+00 -1.525000e+00  0.000000e+00
     vertex  3.870000e+00  1.525000e+00 -1.387779e-17
   endloop
 endfacet
 facet normal -1.000000e+00 -0.000000e+00 -0.000000e+00
   outer loop
     vertex  2.730000e+00  1.525000e+00  1.000000e-01
     vertex  2.730000e+00  1.525000e+00  0.000000e+00
     vertex  2.730000e+00 -1.525000e+00  1.000000e-01
   endloop
 endfacet
 facet normal -1.000000e+00  0.000000e+00  0.000000e+00
   outer loop
     vertex  2.730000e+00  1.525000e+00  0.000000e+00
     vertex  2.730000e+00 -1.525000e+00  0.000000e+00
     vertex  2.730000e+00 -1.525000e+00  1.000000e-01
   endloop
 endfacet
 facet normal  0.000000e+00  0.000000e+00  1.000000e+00
   outer loop
     vertex  3.870000e+00  1.525000e+00  1.000000e-01
     vertex  2.730000e+00  1.525000e+00  1.000000e-01
     vertex  2.730000e+00 -1.525000e+00  1.000000e-01
   endloop
 endfacet
 facet normal -0.000000e+00  0.000000e+00  1.000000e+00
   outer loop
     vertex  3.870000e+00  1.525000e+00  1.000000e-01
     vertex  2.730000e+00 -1.525000e+00  1.000000e-01
     vertex  3.870000e+00 -1.525000e+00  1.000000e-01
   endloop
 endfacet
 facet normal -1.000000e+00 -0.000000e+00 -0.000000e+00
   outer loop
     vertex  3.870000e+00  1.525000e+00  1.134000e+00
     vertex  3.870000e+00  1.525000e+00  1.000000e-01
     vertex  3.870000e+00 -1.525000e+00  1.000000e-01
   endloop
 endfacet
 facet normal -1.000000e+00 -0.000000e+00  0.000000e+00
   outer loop
     vertex  3.870000e+00  1.525000e+00  1.134000e+00
     vertex  3.870000e+00 -1.525000e+00  1.000000e-01
     vertex  3.870000e+00 -1.525000e+00  1.134000e+00
   endloop
 endfacet
 facet normal  0.000000e+00 -0.000000e+00  1.000000e+00
   outer loop
     vertex  2.830000e+00 -1.525000e+00  1.234000e+00
     vertex  3.870000e+00 -1.525000e+00  1.234000e+00
     vertex  2.830000e+00  1.525000e+00  1.234000e+00
   endloop
 endfacet
 facet normal  0.000000e+00 -0.000000e+00  1.000000e+00
   outer loop
     vertex  3.870000e+00 -1.525000e+00  1.234000e+00
     vertex  3.870000e+00  1.525000e+00  1.234000e+00
     vertex  2.830000e+00  1.525000e+00  1.234000e+00
   endloop
 endfacet
 facet normal  0.000000e+00  0.000000e+00 -1.000000e+00
   outer loop
     vertex  2.830000e+00 -1.525000e+00  1.134000e+00
     vertex  2.830000e+00  1.525000e+00  1.134000e+00
     vertex  3.870000e+00  1.525000e+00  1.134000e+00
   endloop
 endfacet
 facet normal  0.000000e+00  0.000000e+00 -1.000000e+00
   outer loop
     vertex  3.870000e+00 -1.525000e+00  1.134000e+00
     vertex  2.830000e+00 -1.525000e+00  1.134000e+00
     vertex  3.870000e+00  1.525000e+00  1.134000e+00
   endloop
 endfacet
 facet normal -1.000000e+00 -0.000000e+00 -0.000000e+00
   outer loop
     vertex  2.830000e+00  1.525000e+00  1.234000e+00
     vertex  2.830000e+00  1.525000e+00  1.134000e+00
     vertex  2.830000e+00 -1.525000e+00  1.234000e+00
   endloop
 endfacet
 facet normal -1.000000e+00  0.000000e+00  0.000000e+00
   outer loop
     vertex  2.830000e+00  1.525000e+00  1.134000e+00
     vertex  2.830000e+00 -1.525000e+00  1.134000e+00
     vertex  2.830000e+00 -1.525000e+00  1.234000e+00
   endloop
 endfacet
endsolid
